<svg width="10" height="13" viewBox="0 0 10 13" fill="none" xmlns="http://www.w3.org/2000/svg">
<g clip-path="url(#clip0_4_147)">
<path d="M9.90397 5.39404V6.65513C9.90397 6.83028 9.84267 6.97916 9.72006 7.10176C9.59746 7.22437 9.44858 7.28567 9.27343 7.28567H6.54108V10.018C6.54108 10.1932 6.47978 10.342 6.35717 10.4647C6.23457 10.5873 6.08569 10.6486 5.91054 10.6486H4.64945C4.4743 10.6486 4.32542 10.5873 4.20282 10.4647C4.08021 10.342 4.01891 10.1932 4.01891 10.018V7.28567H1.28656C1.11141 7.28567 0.962535 7.22437 0.839929 7.10176C0.717324 6.97916 0.656021 6.83028 0.656021 6.65513V5.39404C0.656021 5.21889 0.717324 5.07002 0.839929 4.94741C0.962535 4.8248 1.11141 4.7635 1.28656 4.7635H4.01891V2.03115C4.01891 1.856 4.08021 1.70713 4.20282 1.58452C4.32542 1.46191 4.4743 1.40061 4.64945 1.40061H5.91054C6.08569 1.40061 6.23457 1.46191 6.35717 1.58452C6.47978 1.70713 6.54108 1.856 6.54108 2.03115V4.7635H9.27343C9.44858 4.7635 9.59746 4.8248 9.72006 4.94741C9.84267 5.07002 9.90397 5.21889 9.90397 5.39404Z" fill="black"/>
</g>
<defs>
<clipPath id="clip0_4_147">
<rect width="9.44" height="12" fill="white" transform="matrix(1 0 0 -1 0.559998 12.5599)"/>
</clipPath>
</defs>
</svg>
